<svg xmlns="http://www.w3.org/2000/svg" viewBox="0 0 1200 630">
  <defs>
    <linearGradient id="bgGradient" x1="0%" y1="0%" x2="100%" y2="100%">
      <stop offset="0%" style="stop-color:#fce4ec"/>
      <stop offset="50%" style="stop-color:#f8bbd9"/>
      <stop offset="100%" style="stop-color:#e1bee7"/>
    </linearGradient>
    <linearGradient id="heartGradient" x1="0%" y1="0%" x2="100%" y2="100%">
      <stop offset="0%" style="stop-color:#ff6b9d"/>
      <stop offset="50%" style="stop-color:#e91e63"/>
      <stop offset="100%" style="stop-color:#ff4081"/>
    </linearGradient>
    <linearGradient id="textGradient" x1="0%" y1="0%" x2="100%" y2="0%">
      <stop offset="0%" style="stop-color:#e91e63"/>
      <stop offset="100%" style="stop-color:#9c27b0"/>
    </linearGradient>
  </defs>
  
  <!-- Background -->
  <rect width="1200" height="630" fill="url(#bgGradient)"/>
  
  <!-- Decorative hearts -->
  <g opacity="0.3">
    <text x="50" y="100" font-size="40">=ï</text>
    <text x="150" y="550" font-size="50">=ñ</text>
    <text x="1050" y="120" font-size="45">=ó</text>
    <text x="1100" y="500" font-size="35">=ù</text>
    <text x="300" y="80" font-size="30">(</text>
    <text x="900" y="580" font-size="40"><9</text>
  </g>
  
  <!-- Main heart -->
  <g transform="translate(600, 200)">
    <path d="M0 60C0 60 -120 0 -120 -50C-120 -95 -85 -120 -60 -120C-30 -120 0 -90 0 -90C0 -90 30 -120 60 -120C85 -120 120 -95 120 -50C120 0 0 60 0 60Z" 
          fill="url(#heartGradient)" 
          transform="scale(1.5)"/>
    <circle cx="-60" cy="-60" r="20" fill="rgba(255,255,255,0.4)" transform="scale(1.5)"/>
  </g>
  
  <!-- Main title -->
  <text x="600" y="420" 
        font-family="Georgia, serif" 
        font-size="72" 
        font-weight="bold"
        fill="url(#textGradient)" 
        text-anchor="middle"
        font-style="italic">
    Will You Be My Valentine?
  </text>
  
  <!-- Subtitle -->
  <text x="600" y="480" 
        font-family="Arial, sans-serif" 
        font-size="28" 
        fill="#6d4c5c" 
        text-anchor="middle">
    Create a magical surprise for your special someone =ï
  </text>
  
  <!-- Call to action -->
  <rect x="450" y="520" width="300" height="60" rx="30" fill="url(#heartGradient)"/>
  <text x="600" y="560" 
        font-family="Arial, sans-serif" 
        font-size="24" 
        font-weight="bold"
        fill="white" 
        text-anchor="middle">
    willyoubemyvalentine.fun
  </text>
</svg>
